<svg xmlns="http://www.w3.org/2000/svg" xmlns:xlink="http://www.w3.org/1999/xlink" id="Capa_1" data-name="Capa 1" viewBox="0 0 305.46 228.49"><defs><style>.cls-1{fill:#201815;}.cls-1,.cls-2{fill-rule:evenodd;}.cls-2{fill:url(#linear-gradient);}.cls-3{font-size:58.39px;font-family:MyriadPro-Regular, Myriad Pro;}.cls-4{letter-spacing:0em;}.cls-5{letter-spacing:-0.01em;}.cls-6{letter-spacing:0em;}.cls-7{font-size:27px;fill:#ff151b;font-family:News706BT-BoldC, News706 BT;font-weight:700;}</style><linearGradient id="linear-gradient" x1="4.27" y1="70.57" x2="300.2" y2="70.57" gradientUnits="userSpaceOnUse"><stop offset="0.02" stop-color="#6a000e"></stop><stop offset="0.09" stop-color="#70010f"></stop><stop offset="0.18" stop-color="#800310"></stop><stop offset="0.28" stop-color="#9c0712"></stop><stop offset="0.39" stop-color="#c20c16"></stop><stop offset="0.5" stop-color="#f2131a"></stop><stop offset="0.53" stop-color="#ff151b"></stop><stop offset="0.6" stop-color="#ff1b22"></stop><stop offset="0.69" stop-color="#ff2b34"></stop><stop offset="0.77" stop-color="#ff3f4a"></stop><stop offset="0.85" stop-color="#ff404c"></stop><stop offset="0.88" stop-color="#ff4453"></stop><stop offset="0.9" stop-color="#ff4b5e"></stop><stop offset="0.92" stop-color="#ff556f"></stop><stop offset="0.92" stop-color="#ff5773"></stop><stop offset="0.93" stop-color="#fb627c"></stop><stop offset="0.95" stop-color="#f07f92"></stop><stop offset="0.98" stop-color="#dfaeb7"></stop><stop offset="1" stop-color="#d1d3d4"></stop><stop offset="1" stop-color="#ff94a0"></stop></linearGradient></defs><path class="cls-1" d="M139.15,88.65l25.91,69.77h-22.7l-16.22-43.61-43.92-4.19C103.22,99.87,118.69,95.67,139.15,88.65Z"></path><path class="cls-1" d="M76.46,114.81,62.93,158.42H34.61l11.87-29.77C56.75,122.71,65.94,119.9,76.46,114.81Z"></path><path class="cls-1" d="M208,158.42H187L158,81.4c6.4-2,11.33-4.42,18.85-6.17l21.34,54.66,25.89-67.6c9.66-1.77,15.13-2.61,23.66-3.9Z"></path><path class="cls-2" d="M106.08,60.08l-5.46-14.72-7.3,19.33q6.29-2.46,12.76-4.61ZM83.54,90.61l-.43.14-.43.14-.07,0L81,91.45l-.43.14-.42.14-.43.14-.08,0L78,92.44l-.42.15-.42.14-.42.14-.42.15-1.27.43-.42.15-.41.14-.42.15-.43.14-1.25.45-.42.14-.42.15-.41.15-.42.15-1.25.45-.41.15-.42.15L68,96h0l-2,.75-.42.15-.41.16-.41.15-1.24.47-.41.15-.41.16-.41.15-.07,0-2,.75-.41.16-.41.16-.41.16-1.63.64-.4.15A430.16,430.16,0,0,0,4.27,125,231.28,231.28,0,0,1,65.79,77.4L89.74,16.14H111.6l14.89,38.08q9.14-2.22,18.56-3.83L131.8,16.14h23.8l11.58,31.42q11.79-1,23.91-1a274.62,274.62,0,0,1,37.69,2.58l12.18-33h23.58L250.38,53A260.08,260.08,0,0,1,300.2,69.44a467.65,467.65,0,0,0-54.73-3.65H232.25l-.72,0H227.2l-1.08,0H225l-.36,0H224l-.71,0h-.74q-12.72.48-25.7,1.61a517.48,517.48,0,0,0-61.48,9.09l-.34.07-1.67.36-.34.07-.33.07-.33.07-.34.07-.34.08L130,78h0l-.33.08-.33.07-.34.08-.33.07-.33.07-1.33.3-.33.08-.33.08-.33.07-2.33.54-.33.08-.33.08-.33.08-.33.08-1.65.39-.33.08-.33.08-.33.08-.33.08-1.64.4-.33.08-.33.09-.33.08-.32.08-.33.08-2,.5Q98.5,85.74,83.54,90.61Z"></path><text class="cls-3" transform="translate(40.13 208.36) scale(1.1 1)"><tspan class="cls-4">B</tspan><tspan x="31.88" y="0">e</tspan><tspan class="cls-5" x="61.13" y="0">y</tspan><tspan class="cls-6" x="88.05" y="0">ond</tspan></text><text class="cls-7" transform="matrix(0.96, -0.29, 0.29, 0.96, 141.35, 98.14)">&amp;</text></svg>